PathFileType	4	(X/Y/Z)	/Users/itak/Documents/Research/Walk-IL/dataset/trc/00303_00010.trc
DataRate	CameraRate	NumFrames	NumMarkers	Units	OrigDataRate	OrigDataStartFrame	OrigNumFrames
100.000000	100.000000	4	56	mm	100.000000	0	396
Frame#	Time	RPSI			LPSI			L3			STRN			T10			C7			CLAV			RBAK			LBAK			LSHO			LUPA			LAEL			LAOL			LWTS			LWPS			LFRA			LIFD			LHPS			LHTS			RSHO			RUPA			RAEL			RAOL			RWTS			RWPS			RFRA			RIFD			RBHD			LFHD			RFHD			LBHD			LHIP			RHIP			RASI			LASI			LKNE			LTHI			LANK			LTIP			LTOE			LMT1			LMT5			LHEE			RKNE			RTHI			RTIP			RTOE			RMT1			RMT5			RHEE			RHPS			RHTS			RANK			*53			*54			*55			
		X1	Y1	Z1	X2	Y2	Z2	X3	Y3	Z3	X4	Y4	Z4	X5	Y5	Z5	X6	Y6	Z6	X7	Y7	Z7	X8	Y8	Z8	X9	Y9	Z9	X10	Y10	Z10	X11	Y11	Z11	X12	Y12	Z12	X13	Y13	Z13	X14	Y14	Z14	X15	Y15	Z15	X16	Y16	Z16	X17	Y17	Z17	X18	Y18	Z18	X19	Y19	Z19	X20	Y20	Z20	X21	Y21	Z21	X22	Y22	Z22	X23	Y23	Z23	X24	Y24	Z24	X25	Y25	Z25	X26	Y26	Z26	X27	Y27	Z27	X28	Y28	Z28	X29	Y29	Z29	X30	Y30	Z30	X31	Y31	Z31	X32	Y32	Z32	X33	Y33	Z33	X34	Y34	Z34	X35	Y35	Z35	X36	Y36	Z36	X37	Y37	Z37	X38	Y38	Z38	X39	Y39	Z39	X40	Y40	Z40	X41	Y41	Z41	X42	Y42	Z42	X43	Y43	Z43	X44	Y44	Z44	X45	Y45	Z45	X46	Y46	Z46	X47	Y47	Z47	X48	Y48	Z48	X49	Y49	Z49	X50	Y50	Z50	X51	Y51	Z51	X52	Y52	Z52	X53	Y53	Z53	X54	Y54	Z54	X55	Y55	Z55	X56	Y56	Z56	

1	0	-1279.0263671875	967.5947875976562	703.6815185546875	-1258.333740234375	954.2454833984375	530.6592407226562	-1247.3681640625	1033.613525390625	630.79931640625	-984.4617919921875	1188.7841796875	623.4503173828125	-1253.908813476562	1147.905883789062	637.900634765625	-1191.489135742188	1387.660522460938	607.0095825195312	-1036.221923828125	1294.782592773438	612.614501953125	-1250.105346679688	1260.1787109375	695.3021240234375	-1214.723388671875	1345.470092773438	505.9221496582031	-1126.888427734375	1340.5361328125	447.9216613769531	-1181.22314453125	1226.537231445312	384.9306945800781	-1224.544677734375	1029.453857421875	379.4084167480469	-1270.483764648438	1027.054565429688	451.9191284179688	-1205.7099609375	792.3241577148438	417.6304626464844	-1253.134155273438	793.9512329101562	362.2098693847656	-1243.016967773438	925.6380004882812	369.2024536132812	-1261.732666015625	616.3932495117188	417.959228515625	-1276.551025390625	708.6879272460938	366.2445373535156	-1218.576171875	692.3901977539062	395.1236267089844	-1116.489868164062	1367.867919921875	764.941650390625	-1120.37158203125	1311.864990234375	836.5284423828125	-1107.90087890625	1044.765869140625	900.6158447265625	-1158.207275390625	1029.572387695312	821.1415405273438	-952.279541015625	884.18994140625	791.9122924804688	-972.0125122070312	849.2879638671875	867.6000366210938	-1063.276489257812	985.6206665039062	898.5879516601562	-865.7981567382812	726.8258056640625	748.3743286132812	-1158.481567382812	1548.5400390625	668.620361328125	-1000.5703125	1573.569091796875	528.8587036132812	-991.8233642578125	1579.994750976562	620.3839111328125	-1172.819946289062	1529.123168945312	523.9772338867188	-1174.72705078125	910.9541625976562	446.7355346679688	-1202.040283203125	908.5642700195312	821.600830078125	-1070.361083984375	901.1615600585938	771.6558227539062	-1047.627563476562	912.668701171875	520.1529541015625	-928.19775390625	496.3621826171875	512.2550659179688	-997.4331665039062	617.8507080078125	474.5359802246094	-966.8341064453125	50.62178802490234	531.7907104492188	-941.28271484375	262.4081420898438	511.7964782714844	-773.076904296875	48.06929779052734	624.8446044921875	-848.2909545898438	32.5750617980957	652.38232421875	-842.4197998046875	48.88721466064453	541.802490234375	-1021.415588378906	39.51589584350586	581.02880859375	-1298.14111328125	452.6641845703125	768.1122436523438	-1192.288330078125	692.5479125976562	813.9693603515625	-1339.961303710938	335.2295227050781	749.6282958984375	-1340.518432617188	46.94857788085938	688.0557861328125	-1389.984252929688	48.4005012512207	640.0147094726562	-1439.890747070312	42.7091178894043	748.5347290039062	-1583.793823242188	82.374755859375	656.0741577148438	-904.3458862304688	763.69091796875	835.4410400390625	-870.3173217773438	795.8713989257812	780.7761840820312	-1537.3583984375	70.73484802246094	712.9371337890625	nan	nan	nan	nan	nan	nan	nan	nan	nan	
2	0.01	-1273.125244140625	967.9404296875	703.1504516601562	-1252.2666015625	955.0338134765625	530.0861206054688	-1241.859741210938	1034.21142578125	630.4487915039062	-978.9729614257812	1189.845947265625	622.6046752929688	-1248.763305664062	1148.475952148438	637.5316772460938	-1186.903076171875	1388.194213867188	606.1828002929688	-1031.435302734375	1295.588623046875	611.625	-1245.057861328125	1260.826538085938	694.791259765625	-1210.204345703125	1345.7021484375	505.217529296875	-1122.460815429688	1340.7900390625	447.0809631347656	-1176.389526367188	1226.45751953125	384.3445129394531	-1218.761352539062	1029.2939453125	378.8894653320312	-1264.709106445312	1026.627197265625	451.4313659667969	-1199.840942382812	792.075927734375	416.8393249511719	-1247.3388671875	793.7679443359375	361.5574645996094	-1237.142822265625	925.4859619140625	368.651123046875	-1256.144165039062	616.23291015625	416.9874877929688	-1270.83447265625	708.6708984375	365.53076171875	-1212.713623046875	692.1764526367188	394.1985168457031	-1111.465698242188	1368.939697265625	763.9395141601562	-1115.093383789062	1313.049194335938	835.5916137695312	-1102.781616210938	1045.871948242188	899.3860473632812	-1153.153564453125	1030.824951171875	819.9267578125	-948.3271484375	883.7647094726562	791.2415161132812	-968.3191528320312	849.3800048828125	867.0819091796875	-1058.652099609375	986.489013671875	897.5203247070312	-863.07568359375	725.5665283203125	748.5612182617188	-1153.885009765625	1549.236206054688	667.59619140625	-996.1547241210938	1574.368774414062	527.6864013671875	-987.3447265625	1580.819702148438	619.3140869140625	-1168.254150390625	1529.7236328125	522.8800048828125	-1168.703857421875	912.059814453125	446.0775756835938	-1195.97802734375	908.7706298828125	820.902099609375	-1064.436645507812	901.8029174804688	771.139404296875	-1041.537231445312	913.8862915039062	519.7783203125	-923.7566528320312	496.12548828125	511.9856262207031	-992.1763916015625	618.3363647460938	474.1251831054688	-966.6307373046875	50.63716888427734	531.7123413085938	-938.5372924804688	262.0067749023438	511.781494140625	-772.8467407226562	47.25074768066406	624.9614868164062	-848.1714477539062	32.35942459106445	652.4889526367188	-842.2547607421875	48.39381408691406	541.8379516601562	-1021.315307617188	39.76525497436523	580.939697265625	-1291.991088867188	452.9272766113281	768.1060791015625	-1186.260986328125	692.767822265625	813.353515625	-1335.278076171875	335.8782653808594	750.0184936523438	-1340.2216796875	46.84707260131836	688.0509643554688	-1389.489624023438	48.79492568969727	640.1078491210938	-1439.092529296875	43.4811897277832	748.8207397460938	-1582.121337890625	86.69162750244141	656.5615844726562	-901.2224731445312	763.2035522460938	835.4468383789062	-867.172119140625	794.8425903320312	780.6497802734375	-1535.933715820312	73.84462738037109	713.559326171875	nan	nan	nan	nan	nan	nan	nan	nan	nan	
3	0.02	-1265.683959960938	968.5084228515625	702.4639282226562	-1244.617431640625	956.1290893554688	529.3545532226562	-1234.85986328125	1035.080322265625	629.9651489257812	-972.1246337890625	1191.35302734375	621.53125	-1242.227416992188	1149.266235351562	637.0258178710938	-1181.138793945312	1388.97021484375	605.136474609375	-1025.410278320312	1296.769409179688	610.39208984375	-1238.682983398438	1261.711547851562	694.1142578125	-1204.50732421875	1346.112182617188	504.3030700683594	-1116.876098632812	1341.29052734375	446.0129699707031	-1170.250854492188	1226.558837890625	383.5579833984375	-1211.4169921875	1029.268920898438	378.1975708007812	-1257.343139648438	1026.267700195312	450.7851867675781	-1192.2333984375	791.9517211914062	415.8355407714844	-1239.822875976562	793.7215576171875	360.7098388671875	-1229.614013671875	925.4669799804688	367.9274597167969	-1248.847045898438	616.2033081054688	415.8058471679688	-1263.397094726562	708.7942504882812	364.60205078125	-1205.146850585938	692.0848388671875	393.0732421875	-1105.189697265625	1370.408325195312	762.6799926757812	-1108.502197265625	1314.644775390625	834.4102172851562	-1096.421264648438	1047.378662109375	897.8428955078125	-1146.84326171875	1032.537475585938	818.3627319335938	-943.5031127929688	883.2925415039062	790.4501342773438	-963.7626342773438	849.6368408203125	866.5001220703125	-1052.882934570312	987.70361328125	896.1658325195312	-859.873291015625	723.9992065429688	748.8865356445312	-1148.105590820312	1550.261962890625	666.301513671875	-990.5448608398438	1575.45068359375	526.2298583984375	-981.6763916015625	1581.940551757812	617.9557495117188	-1162.50732421875	1530.635009765625	521.5095825195312	-1161.08935546875	913.5230712890625	445.245361328125	-1188.325317382812	909.1343383789062	820.033447265625	-1056.953979492188	902.7714233398438	770.4578857421875	-1033.870849609375	915.4733276367188	519.2614135742188	-918.3884887695312	495.7940063476562	511.6448669433594	-985.7305297851562	618.8582763671875	473.6189880371094	-966.3968505859375	50.646728515625	531.6069946289062	-935.3436889648438	261.5669250488281	511.7281799316406	-772.6154174804688	46.33062362670898	625.1342163085938	-848.0792236328125	32.14237213134766	652.6296997070312	-842.071533203125	47.87794494628906	541.8887329101562	-1021.207275390625	40.02676010131836	580.8109130859375	-1283.839477539062	453.2737121582031	768.2059936523438	-1178.478393554688	693.1605834960938	812.5801391601562	-1329.002807617188	336.7850952148438	750.6224975585938	-1339.914794921875	46.74528503417969	688.060791015625	-1388.764770507812	49.33766174316406	640.2390747070312	-1438.00927734375	44.53192138671875	749.1981201171875	-1579.6572265625	92.42064666748047	657.1671142578125	-897.4739990234375	762.6541748046875	835.5186157226562	-863.383056640625	793.5631103515625	780.5159912109375	-1533.890258789062	77.98264312744141	714.2991943359375	nan	nan	nan	nan	nan	nan	nan	nan	nan	
4	0.03	-1256.995239257812	969.3333129882812	701.640869140625	-1235.69140625	957.532958984375	528.488525390625	-1226.61669921875	1036.233642578125	629.342041015625	-964.21826171875	1193.318725585938	620.2722778320312	-1234.53369140625	1150.277587890625	636.3768310546875	-1174.429077148438	1390.003295898438	603.9082641601562	-1018.38623046875	1298.35546875	608.9724731445312	-1231.228637695312	1262.830688476562	693.2755737304688	-1197.849853515625	1346.73779296875	503.2051086425781	-1110.345825195312	1342.102294921875	444.7586669921875	-1163.025634765625	1226.934936523438	382.580322265625	-1202.775634765625	1029.462036132812	377.3391723632812	-1248.642578125	1026.0849609375	449.9872741699219	-1183.092041015625	792.05224609375	414.6601867675781	-1230.775634765625	793.8988037109375	359.6875	-1220.668212890625	925.6670532226562	367.0442504882812	-1239.986938476562	616.3836059570312	414.4754638671875	-1254.40380859375	709.1132202148438	363.482177734375	-1196.062255859375	692.2075805664062	391.8085327148438	-1097.938598632812	1372.263916015625	761.2152709960938	-1100.893920898438	1316.632446289062	833.0302734375	-1089.115844726562	1049.279541015625	896.0518188476562	-1139.555786132812	1034.699584960938	816.5004272460938	-938.0687255859375	882.8214721679688	789.5977172851562	-958.5843505859375	850.1109619140625	865.9172973632812	-1046.222290039062	989.2687377929688	894.5759887695312	-856.429931640625	722.1992797851562	749.3787231445312	-1141.377197265625	1551.644287109375	664.7850952148438	-983.944580078125	1576.80419921875	524.5573120117188	-975.0318603515625	1583.347045898438	616.3628540039062	-1155.806884765625	1531.891967773438	519.9276123046875	-1152.194091796875	915.3130493164062	444.2715759277344	-1179.382934570312	909.6947631835938	819.0307006835938	-1048.201171875	904.1055908203125	769.62158203125	-1024.941040039062	917.38623046875	518.6076049804688	-912.4348754882812	495.3644409179688	511.2414245605469	-978.4489135742188	619.3609619140625	473.0361328125	-966.1495361328125	50.64723968505859	531.478271484375	-931.9373779296875	261.1235656738281	511.6265869140625	-772.408203125	45.39735412597656	625.3492431640625	-848.0323486328125	31.95011711120605	652.7919311523438	-841.88671875	47.39038848876953	541.9483642578125	-1021.099060058594	40.27252960205078	580.6449584960938	-1273.797119140625	453.6908264160156	768.4733276367188	-1169.15576171875	693.7664184570312	811.6995239257812	-1321.185913085938	337.9473876953125	751.4776611328125	-1339.649169921875	46.66271209716797	688.094970703125	-1387.786987304688	50.0274658203125	640.415771484375	-1436.65771484375	45.86605072021484	749.6582641601562	-1576.291259765625	99.47520446777344	657.865234375	-893.3378295898438	762.0962524414062	835.6876831054688	-859.1724853515625	792.0926513671875	780.4013671875	-1531.163940429688	83.10103607177734	715.0941162109375	nan	nan	nan	nan	nan	nan	nan	nan	nan	
